<?xml version="1.0" standalone="no"?>
<!DOCTYPE svg PUBLIC "-//W3C//DTD SVG 1.1//EN" "http://www.w3.org/Graphics/SVG/1.1/DTD/svg11.dtd" >
<svg xmlns="http://www.w3.org/2000/svg">
<metadata></metadata>
<defs>
<font id="NobelLight" horiz-adv-x="1495" >
<font-face units-per-em="2048" ascent="1638" descent="-410" />
<missing-glyph horiz-adv-x="409" />
<glyph horiz-adv-x="0" />
<glyph horiz-adv-x="2048" />
<glyph unicode=" "  horiz-adv-x="409" />
<glyph unicode="&#x09;" horiz-adv-x="409" />
<glyph unicode="&#xa0;" horiz-adv-x="409" />
<glyph unicode="!" horiz-adv-x="387" d="M147 0v172h93v-172h-93zM147 614v881h93v-881l-21 -350h-51z" />
<glyph unicode="&#x22;" horiz-adv-x="573" d="M123 1317v178h92v-178l-20 -184h-52zM358 1317v178h93v-178l-21 -184h-51z" />
<glyph unicode="#" horiz-adv-x="1200" d="M61 465v74h250l37 424h-287v73h293l41 459h92l-41 -459h357l41 459h92l-41 -459h244v-73h-250l-37 -424h287v-74h-293l-41 -465h-92l41 465h-357l-41 -465h-92l41 465h-244zM403 539h357l37 424h-357z" />
<glyph unicode="$" horiz-adv-x="993" d="M51 186l58 60q61 -64 150 -107t179 -49v680q-183 83 -262.5 166t-79.5 219q0 143 94 234.5t248 103.5v115h84v-115q95 -5 174.5 -35t157.5 -94l-57 -68q-110 104 -275 113v-580q80 -37 135.5 -67t109 -70t85 -82.5t51 -99t19.5 -123.5q0 -165 -110 -269.5t-290 -115.5 v-143h-84v143q-111 9 -219 61.5t-168 122.5zM190 1155q0 -71 25 -119t75.5 -85.5t147.5 -82.5v541q-120 -10 -184 -77.5t-64 -176.5zM522 90q145 12 226 88t81 199q0 69 -17 119.5t-58 92t-93 73t-139 71.5v-643z" />
<glyph unicode="%" d="M102 1133q0 168 80 277.5t213 109.5q90 0 156.5 -52.5t99.5 -138t33 -190.5q0 -169 -80.5 -280t-214.5 -111q-56 0 -106.5 24.5t-91 70.5t-65 121.5t-24.5 168.5zM174 0l1022 1495h104l-1021 -1495h-105zM195 1133q0 -135 50.5 -219.5t143.5 -84.5q99 0 151 85t52 219 q0 131 -52 218t-145 87q-94 0 -147 -84.5t-53 -220.5zM811 360q0 168 80.5 278t212.5 110q90 0 156.5 -52.5t99.5 -138t33 -190.5q0 -170 -80.5 -281t-214.5 -111q-56 0 -106.5 24.5t-91 70.5t-65 121.5t-24.5 168.5zM903 360q0 -134 50.5 -218.5t144.5 -84.5 q99 0 150.5 84.5t51.5 218.5q0 131 -51.5 218.5t-144.5 87.5q-94 0 -147.5 -85t-53.5 -221z" />
<glyph unicode="&#x26;" horiz-adv-x="1290" d="M82 371q0 72 24.5 140t70 126t95 104t113.5 93l-100 112q-127 145 -127 271t96 214.5t229 88.5q138 0 227 -86.5t89 -214.5q0 -58 -23.5 -114t-67 -106.5t-90 -90.5t-108.5 -85l455 -512q62 64 135 160l61 -59q-105 -125 -141 -162l221 -250h-119l-166 186 q-225 -211 -471 -211q-171 0 -287 115t-116 281zM178 377q0 -131 83.5 -223.5t215.5 -92.5q219 0 424 189l-463 522q-59 -45 -102 -86t-81 -90t-57.5 -104.5t-19.5 -114.5zM252 1223q0 -61 22.5 -112t77.5 -112l105 -116q117 85 183.5 163t66.5 164q0 104 -61 165t-163 61 q-97 0 -164 -58t-67 -155z" />
<glyph unicode="'" horiz-adv-x="337" d="M123 1317v178h92v-178l-20 -184h-52z" />
<glyph unicode="(" horiz-adv-x="600" d="M88 592q0 606 481 991v-57q-169 -163 -277 -414.5t-108 -519.5t108 -519.5t277 -414.5v-57q-481 385 -481 991z" />
<glyph unicode=")" horiz-adv-x="600" d="M31 -342q169 163 277 414.5t108 519.5t-108 519.5t-277 414.5v57q481 -385 481 -991t-481 -991v57z" />
<glyph unicode="*" horiz-adv-x="804" d="M86 1239l25 70l260 -92l-9 278h74l-8 -278l264 92l25 -70l-266 -80l167 -219l-59 -45l-158 227l-157 -225l-62 41l170 221z" />
<glyph unicode="+" horiz-adv-x="1028" d="M72 635v82h397v383h90v-383h397v-82h-397v-379h-90v379h-397z" />
<glyph unicode="," horiz-adv-x="337" d="M43 -303q46 67 63 137t17 172v166h92v-172q0 -175 -115 -303h-57z" />
<glyph unicode="-" horiz-adv-x="675" d="M123 422v82h430v-82h-430z" />
<glyph unicode="." horiz-adv-x="337" d="M123 0v172h92v-172h-92z" />
<glyph unicode="/" horiz-adv-x="761" d="M82 0l506 1495h92l-506 -1495h-92z" />
<glyph unicode="0" horiz-adv-x="1232" d="M80 733q0 132 20 248t62.5 215.5t105 171t153 112t200.5 40.5q105 0 193 -42t150 -114t105 -169t63.5 -206.5t20.5 -226.5q0 -166 -32.5 -306t-97 -249t-170.5 -170.5t-243 -61.5q-105 0 -193 42t-149.5 114t-104.5 169t-63 206.5t-20 226.5zM176 745q0 -102 15.5 -198.5 t50.5 -185.5t85 -155t124 -105.5t163 -39.5q114 0 201 55t138.5 151t77.5 218t26 265q0 130 -25.5 248t-76 217.5t-137.5 159t-200 59.5q-112 0 -198 -55t-138.5 -151t-79 -218t-26.5 -265z" />
<glyph unicode="1" horiz-adv-x="528" d="M27 1167v82q84 9 164 82t110 164h80v-1495h-92v1319q-38 -56 -112 -98.5t-150 -53.5z" />
<glyph unicode="2" horiz-adv-x="1054" d="M45 0l657 780q80 96 119 168.5t39 151.5q0 140 -95 237t-241 97q-145 0 -242 -84t-116 -222h-94q22 171 149 281.5t299 110.5q185 0 311.5 -119.5t126.5 -294.5q0 -98 -48 -186t-140 -197l-534 -633h731v-90h-922z" />
<glyph unicode="3" horiz-adv-x="1122" d="M37 219l69 55q177 -213 441 -213q171 0 278 93.5t107 259.5q0 163 -109.5 255.5t-320.5 92.5h-115v82h111q175 0 274.5 80.5t99.5 224.5q0 127 -92 206t-229 79q-120 0 -212.5 -49.5t-150.5 -131.5l-75 47q165 220 444 220q169 0 290.5 -101t121.5 -258 q0 -129 -66 -219.5t-184 -134.5q138 -35 223.5 -136.5t85.5 -244.5q0 -205 -130 -328t-353 -123q-159 0 -294 68.5t-214 175.5z" />
<glyph unicode="4" horiz-adv-x="1103" d="M43 401v66l725 1028h55v-1012h240v-82h-240v-401h-92v401h-688zM158 483h573v815z" />
<glyph unicode="5" horiz-adv-x="1181" d="M86 186l68 58q171 -183 403 -183q188 0 303 127.5t115 311.5q0 208 -114 324t-290 116q-119 0 -206.5 -60.5t-143.5 -166.5l-71 41l43 741h770v-82h-682l-33 -530q136 143 334 143q136 0 247 -62.5t176.5 -180.5t65.5 -271q0 -147 -61 -268t-180.5 -195t-276.5 -74 q-133 0 -257 58.5t-210 152.5z" />
<glyph unicode="6" horiz-adv-x="1159" d="M82 473q0 501 512 1022h117q-153 -140 -284.5 -329.5t-184.5 -342.5q53 71 149.5 115.5t202.5 44.5q212 0 348.5 -133.5t136.5 -343.5q0 -236 -144.5 -383.5t-361.5 -147.5t-354 134.5t-137 363.5zM178 487q0 -198 110.5 -308.5t291.5 -110.5q178 0 290.5 121t112.5 305 q0 192 -109 297.5t-292 105.5q-106 0 -198.5 -53.5t-149 -148.5t-56.5 -208z" />
<glyph unicode="7" horiz-adv-x="1034" d="M84 1411v84h885l-733 -1495h-103l696 1411h-745z" />
<glyph unicode="8" horiz-adv-x="1232" d="M78 410q0 131 92 243t231 146q-98 32 -169.5 128.5t-71.5 207.5q0 176 128.5 280.5t327.5 104.5t328 -103.5t129 -273.5q0 -117 -73 -214.5t-175 -127.5q149 -36 239.5 -138.5t90.5 -250.5q0 -130 -73.5 -230.5t-196 -153.5t-271.5 -53q-148 0 -269 51.5t-194 152 t-73 231.5zM174 418q0 -91 36.5 -161.5t99.5 -112t140 -62.5t164 -21q114 0 213.5 38t165.5 117t66 185q0 166 -114 260.5t-329 94.5q-125 0 -224.5 -40t-158.5 -117.5t-59 -180.5zM256 1141q0 -139 94 -221t266 -82q171 0 266 81t95 216q0 143 -98 222t-263 79 q-164 0 -262 -78t-98 -217z" />
<glyph unicode="9" horiz-adv-x="1159" d="M63 991q0 236 141.5 382.5t358.5 146.5q215 0 356.5 -143t141.5 -373q0 -157 -46.5 -313.5t-126 -291t-161 -238.5t-176.5 -200l-70 68q133 118 244 277.5t174 316.5q-128 -146 -350 -146q-210 0 -348 147.5t-138 366.5zM160 1004q0 -194 105.5 -315.5t295.5 -121.5 q180 0 292 112t112 312q0 210 -112.5 324.5t-293.5 114.5q-178 0 -288.5 -120.5t-110.5 -305.5z" />
<glyph unicode=":" horiz-adv-x="337" d="M123 0v172h92v-172h-92zM123 698v172h92v-172h-92z" />
<glyph unicode=";" horiz-adv-x="337" d="M43 -303q46 67 63 137t17 172v166h92v-172q0 -175 -115 -303h-57zM123 698v172h92v-172h-92z" />
<glyph unicode="&#x3c;" horiz-adv-x="716" d="M78 621v88l555 407v-104l-479 -346l479 -349v-108z" />
<glyph unicode="=" horiz-adv-x="987" d="M133 487v82h721v-82h-721zM133 795v82h721v-82h-721z" />
<glyph unicode="&#x3e;" horiz-adv-x="716" d="M84 209v104l479 346l-479 349v108l555 -411v-89z" />
<glyph unicode="?" horiz-adv-x="894" d="M68 1311q54 104 145.5 156.5t206.5 52.5q163 0 271 -101.5t108 -251.5q0 -46 -12.5 -95t-24.5 -80.5t-46 -86t-46 -72t-56 -79.5q-161 -220 -161 -394v-92h-93v82q0 64 14.5 125t46 123.5t55.5 101.5t69 105q41 60 61 90.5t46.5 80t38 92.5t11.5 87q0 117 -82 198 t-200 81q-94 0 -167 -45.5t-116 -131.5zM360 0v172h93v-172h-93z" />
<glyph unicode="@" horiz-adv-x="1728" d="M92 748q0 157 61 300t164.5 246.5t246.5 164.5t300 61q171 0 317 -56t245 -152t154.5 -226t55.5 -277q0 -116 -32.5 -209t-85.5 -149t-114.5 -85.5t-125.5 -29.5t-109.5 32.5t-54.5 86.5q-137 -119 -305 -119q-127 0 -211 68.5t-84 189.5q0 139 112.5 213t317.5 74h168 v67q0 55 -19.5 92.5t-55 55.5t-72.5 25t-86 7q-150 0 -248 -59l-35 70q118 67 283 67q160 0 238.5 -66.5t78.5 -183.5v-446q0 -100 100 -100q46 0 92.5 26t86.5 73.5t65 125.5t25 172q0 126 -48 241t-135 204.5t-222 142.5t-296 53q-190 0 -352 -94.5t-256 -256.5t-94 -352 q0 -138 56 -267.5t150 -224.5t224.5 -152.5t271.5 -57.5q151 0 283 61l29 -61q-151 -68 -312 -68q-157 0 -300 61.5t-246.5 165t-164.5 246.5t-61 300zM602 598q0 -84 59 -134t148 -50q155 0 303 125v268h-160q-350 0 -350 -209z" />
<glyph unicode="A" horiz-adv-x="1282" d="M61 0l555 1520h52l553 -1520h-99l-204 573h-553l-205 -573h-99zM393 655h496l-248 695z" />
<glyph unicode="B" horiz-adv-x="1193" d="M164 0v1495h348q211 0 340 -94.5t129 -270.5q0 -123 -70 -211t-188 -126q45 -3 93.5 -16.5t101 -43t94 -71t68 -106t26.5 -142.5q0 -88 -27.5 -158.5t-75.5 -117.5t-114 -78.5t-140.5 -45.5t-158.5 -14h-426zM256 82h334q86 0 159 18.5t132.5 56.5t94 103.5t34.5 153.5 q0 69 -26.5 125.5t-70 93.5t-101.5 62.5t-118 36.5t-123 11h-315v-661zM256 827h272q94 0 173 31.5t131.5 102t52.5 169.5q0 139 -97.5 211t-275.5 72h-256v-586z" />
<glyph unicode="C" horiz-adv-x="1462" d="M92 748q0 101 25.5 199t71 183t112 157t145.5 123.5t174 80.5t195 29q164 0 304 -63t229 -173l-66 -59q-183 209 -469 209q-178 0 -323 -96t-223.5 -251t-78.5 -333q0 -144 48.5 -272.5t132 -221t200.5 -146t250 -53.5q159 0 272.5 58.5t221.5 175.5l63 -55 q-43 -51 -94 -94t-120.5 -83.5t-158.5 -64t-188 -23.5q-148 0 -281.5 59.5t-230.5 162t-154 246.5t-57 305z" />
<glyph unicode="D" horiz-adv-x="1339" d="M164 0v1495h307q130 0 246 -30t213 -90.5t167.5 -147t110 -205.5t39.5 -260q0 -175 -60 -319.5t-165 -241t-246.5 -149t-304.5 -52.5h-307zM256 82h240q138 0 258.5 49t208 136.5t138 215.5t50.5 279t-50 274.5t-138 205.5t-208 126.5t-259 44.5h-240v-1331z" />
<glyph unicode="E" horiz-adv-x="1062" d="M164 0v1495h756v-82h-664v-584h598v-81h-598v-666h702v-82h-794z" />
<glyph unicode="F" horiz-adv-x="913" d="M164 0v1495h667v-82h-575v-592h520v-82h-520v-739h-92z" />
<glyph unicode="G" horiz-adv-x="1650" d="M92 743q0 161 62 305t167.5 247.5t251 164t306.5 60.5q334 0 546 -234l-61 -63q-108 117 -221 164t-271 47q-142 0 -269 -53.5t-218 -145.5t-144 -220.5t-53 -271.5q0 -152 53 -280.5t145.5 -216t219.5 -136.5t273 -49q219 0 388.5 129.5t209.5 327.5h-535v84h635 q-7 -125 -64 -239.5t-148.5 -200t-218.5 -136.5t-267 -51q-164 0 -309 56.5t-250.5 156.5t-166.5 244t-61 311z" />
<glyph unicode="H" horiz-adv-x="1380" d="M164 0v1495h92v-672h868v672h93v-1495h-93v741h-868v-741h-92z" />
<glyph unicode="I" horiz-adv-x="419" d="M164 0v1495h92v-1495h-92z" />
<glyph unicode="J" horiz-adv-x="692" d="M53 -12v82h107q118 0 202 101t84 239v1085h93v-1067q0 -104 -34.5 -189.5t-90.5 -139t-125 -82.5t-142 -29h-94z" />
<glyph unicode="K" horiz-adv-x="1126" d="M164 0v1495h92v-696l639 696h111l-590 -641l651 -854h-113l-600 786l-98 -106v-680h-92z" />
<glyph unicode="L" horiz-adv-x="991" d="M164 0v1495h92v-1413h682v-82h-774z" />
<glyph unicode="M" horiz-adv-x="1595" d="M164 0v1495h110l525 -815l520 815h113v-1495h-93v1364l-512 -795h-61l-510 791v-1360h-92z" />
<glyph unicode="N" horiz-adv-x="1492" d="M164 0v1495h115l962 -1370q-4 52 -4 111v1259h92v-1495h-106l-971 1376q4 -51 4 -110v-1266h-92z" />
<glyph unicode="O" horiz-adv-x="1658" d="M92 748q0 214 98 391.5t267.5 279t373.5 101.5t373 -101t266 -277.5t97 -391.5q0 -161 -57 -304.5t-155 -247t-234.5 -163.5t-289.5 -60q-204 0 -373.5 101.5t-267.5 279t-98 392.5zM188 748q0 -191 84.5 -349t232.5 -248t326 -90q134 0 252.5 53t203 144t134 218.5 t49.5 271.5q0 192 -82.5 349t-229 247t-327.5 90q-134 0 -253 -53t-204.5 -144t-135.5 -218.5t-50 -270.5z" />
<glyph unicode="P" horiz-adv-x="1071" d="M164 0v1495h328q242 0 369.5 -111t127.5 -294q0 -199 -130 -319t-367 -120h-236v-651h-92zM256 733h256q194 0 287.5 97t93.5 251q0 332 -418 332h-219v-680z" />
<glyph unicode="Q" horiz-adv-x="1658" d="M92 748q0 214 98 391.5t267.5 279t373.5 101.5t373 -101t266 -277.5t97 -391.5q0 -190 -77 -352.5t-212 -268.5q101 -71 172 -84l-78 -76q-76 28 -174 105q-172 -99 -367 -99q-204 0 -373.5 101.5t-267.5 279t-98 392.5zM188 748q0 -191 84.5 -349t232.5 -248t326 -90 q160 0 299 74q-75 72 -106 129l66 45q29 -53 114 -125q125 94 195.5 241t70.5 323q0 192 -82.5 349t-229 247t-327.5 90q-134 0 -253 -53t-204.5 -144t-135.5 -218.5t-50 -270.5z" />
<glyph unicode="R" horiz-adv-x="1110" d="M164 0v1495h366q198 0 336 -113t138 -301q0 -133 -68.5 -231.5t-180 -147.5t-247.5 -49h-72l580 -653h-119l-641 717v-717h-92zM256 735h252q81 0 151.5 20.5t126.5 61t88.5 108.5t32.5 156q0 108 -53.5 185t-137 112t-186.5 35h-274v-678z" />
<glyph unicode="S" horiz-adv-x="987" d="M92 131l60 66q153 -136 333 -136q133 0 228.5 82t95.5 209q0 61 -22 114t-46 86t-81.5 74t-86 57.5t-103.5 55.5q-5 3 -7 4q-55 29 -88 48t-79.5 50t-74.5 60.5t-55.5 69t-40 87t-12.5 103.5q0 160 109 259.5t263 99.5q120 0 211.5 -37.5t167.5 -124.5l-69 -60 q-66 77 -138 106.5t-172 29.5q-114 0 -195 -73.5t-81 -199.5q0 -65 23 -116.5t78.5 -96t94 -67.5t121.5 -67q9 -5 13 -7q48 -25 77.5 -41.5t73 -44.5t70 -51.5t57.5 -58.5t48 -71t28.5 -83.5t11.5 -100.5q0 -108 -60 -196.5t-155.5 -136.5t-204.5 -48q-108 0 -212.5 41.5 t-180.5 114.5z" />
<glyph unicode="T" horiz-adv-x="974" d="M61 1413v82h852v-82h-378v-1413h-93v1413h-381z" />
<glyph unicode="U" horiz-adv-x="1374" d="M154 543v952h92v-952q0 -204 128 -343t312 -139t313 139t129 343v952h93v-952q0 -167 -72 -297.5t-193.5 -200.5t-269.5 -70t-269 70t-192 200.5t-71 297.5z" />
<glyph unicode="V" horiz-adv-x="1345" d="M61 1495h99l493 -1264l21 -63q10 38 18 61l500 1266h92l-614 -1554z" />
<glyph unicode="W" horiz-adv-x="1900" d="M61 1495h99l385 -1262l16 -55q6 31 12 51l349 1266h65l352 -1266l13 -51q10 32 16 55l375 1262h96l-455 -1495h-69l-346 1241l-13 62q-6 -40 -12 -60l-348 -1243h-70z" />
<glyph unicode="X" horiz-adv-x="1386" d="M61 0l582 813l-483 682h106l430 -604l432 604h101l-479 -682l575 -813h-111l-518 739l-526 -739h-109z" />
<glyph unicode="Y" horiz-adv-x="1286" d="M57 1495h107l481 -696l479 696h105l-543 -782v-713h-92v715z" />
<glyph unicode="Z" horiz-adv-x="1284" d="M90 0l930 1413h-823v82h977l-928 -1413h932v-82h-1088z" />
<glyph unicode="[" horiz-adv-x="522" d="M154 -367v1862h307v-76h-219v-1710h219v-76h-307z" />
<glyph unicode="\" horiz-adv-x="761" d="M82 1495h92l506 -1495h-92z" />
<glyph unicode="]" horiz-adv-x="522" d="M61 -291h220v1710h-220v76h308v-1862h-308v76z" />
<glyph unicode="^" horiz-adv-x="989" d="M76 756l370 739h89l366 -739h-98l-314 639l-311 -639h-102z" />
<glyph unicode="_" horiz-adv-x="1024" d="M0 -129h1024v-82h-1024v82z" />
<glyph unicode="`" horiz-adv-x="901" d="M313 1257h97l168 -266h-97z" />
<glyph unicode="a" horiz-adv-x="872" d="M72 233q0 143 111.5 215t318.5 72h168v68q0 55 -19.5 92.5t-55.5 55.5t-73 25t-86 7q-150 0 -248 -59l-34 69q120 68 282 68q160 0 239 -66.5t79 -183.5v-596h-84v94q-137 -119 -303 -119q-127 0 -211 68.5t-84 189.5zM160 233q0 -84 59 -132t148 -48q155 0 303 125v268 h-160q-172 0 -261 -51t-89 -162z" />
<glyph unicode="b" horiz-adv-x="995" d="M133 0v1495h84v-844q36 80 122 137.5t191 57.5q178 0 288 -116.5t110 -319.5q0 -115 -47.5 -213t-140 -160t-212.5 -62q-105 0 -190 57.5t-121 137.5v-170h-84zM217 414q0 -153 90.5 -257t227.5 -104q96 0 166.5 51.5t104.5 131t34 172.5q0 167 -82.5 263.5t-233.5 96.5 q-130 0 -218.5 -107.5t-88.5 -246.5z" />
<glyph unicode="c" horiz-adv-x="876" d="M68 414q0 182 116 307t285 125q212 0 342 -158l-68 -53q-107 133 -262 133q-142 0 -233.5 -101.5t-91.5 -248.5q0 -151 90 -258t223 -107q175 0 291 168l65 -43q-59 -92 -148 -147.5t-202 -55.5q-174 0 -290.5 127t-116.5 312z" />
<glyph unicode="d" horiz-adv-x="995" d="M68 406q0 201 116.5 320.5t286.5 119.5q102 0 186.5 -57.5t120.5 -137.5v844h84v-1495h-84v170q-35 -79 -127 -137t-198 -58q-116 0 -205.5 61t-134.5 158t-45 212zM156 412q0 -98 33 -177.5t103 -130.5t167 -51q137 0 228 104t91 257q0 141 -89.5 247.5t-225.5 106.5 q-139 0 -223 -96.5t-84 -259.5z" />
<glyph unicode="e" horiz-adv-x="909" d="M68 424q0 82 25.5 156t73.5 134.5t127 96t177 35.5q76 0 139 -24t105.5 -64.5t73 -95.5t45.5 -115t18 -125h-696q2 -162 89.5 -265.5t241.5 -103.5q167 0 287 123l60 -51q-49 -62 -140 -106t-211 -44q-82 0 -151 24t-117 66t-81.5 99t-49.5 122.5t-16 137.5zM160 496h590 q-4 49 -23.5 96t-53 87t-87.5 64.5t-119 24.5q-136 0 -212 -76t-95 -196z" />
<glyph unicode="f" horiz-adv-x="415" d="M14 748v73h144v494q0 91 45.5 135.5t120.5 44.5h69v-78h-63q-43 0 -65.5 -26.5t-22.5 -90.5v-479h151v-73h-151v-748h-84v748h-144z" />
<glyph unicode="g" horiz-adv-x="995" d="M68 412q0 115 47 213t139.5 159.5t212.5 61.5q105 0 190 -57.5t121 -137.5v170h84v-815q0 -182 -112.5 -289.5t-282.5 -107.5q-102 0 -195 37t-161 108l59 53q54 -58 132.5 -89t168.5 -31q131 0 219 83.5t88 229.5v170q-36 -80 -122 -137.5t-191 -57.5 q-178 0 -287.5 116.5t-109.5 320.5zM156 414q0 -167 82 -264t233 -97q86 0 157.5 51.5t110.5 132.5t39 171q0 153 -90 256.5t-227 103.5q-96 0 -166.5 -51t-104.5 -130.5t-34 -172.5z" />
<glyph unicode="h" horiz-adv-x="917" d="M133 0v1495h84v-809q39 73 113 116.5t164 43.5q141 0 223 -82t82 -209v-555h-84v543q0 101 -60.5 165t-165.5 64q-116 0 -194 -84t-78 -184v-504h-84z" />
<glyph unicode="i" horiz-adv-x="350" d="M133 0v821h84v-821h-84zM133 1051v163h84v-163h-84z" />
<glyph unicode="j" horiz-adv-x="350" d="M-25 -301q34 -12 84 -12q74 0 74 67v1067h84v-1089q0 -56 -37.5 -86.5t-97.5 -30.5q-52 0 -90 10zM133 1051v163h84v-163h-84z" />
<glyph unicode="k" horiz-adv-x="843" d="M133 0v1495h84v-1077l426 403h119l-381 -354l428 -467h-115l-372 412l-105 -99v-313h-84z" />
<glyph unicode="l" horiz-adv-x="350" d="M133 0v1495h84v-1495h-84z" />
<glyph unicode="m" horiz-adv-x="1429" d="M133 0v821h84v-135q37 72 112.5 116t164.5 44q198 0 251 -166q44 73 124.5 119.5t170.5 46.5q130 0 200.5 -81.5t70.5 -209.5v-555h-84v543q0 101 -49.5 165t-137.5 64q-114 0 -195 -80.5t-81 -185.5v-506h-84v543q0 106 -44.5 167.5t-141.5 61.5q-113 0 -195 -81.5 t-82 -186.5v-504h-84z" />
<glyph unicode="n" horiz-adv-x="917" d="M133 0v821h84v-135q39 73 113 116.5t164 43.5q141 0 223 -82t82 -209v-555h-84v543q0 101 -60.5 165t-165.5 64q-116 0 -194 -84t-78 -184v-504h-84z" />
<glyph unicode="o" horiz-adv-x="1003" d="M68 412q0 189 125.5 311.5t308.5 122.5t308.5 -122.5t125.5 -311.5q0 -125 -58.5 -226t-157.5 -156t-218 -55t-218 55t-157.5 156t-58.5 226zM156 412q0 -155 98.5 -257t247.5 -102t247.5 102t98.5 257t-98 255.5t-248 100.5t-248 -100.5t-98 -255.5z" />
<glyph unicode="p" horiz-adv-x="995" d="M133 -367v1188h84v-170q35 79 127.5 137t198.5 58q116 0 205 -60.5t134.5 -157.5t45.5 -212q0 -201 -117 -321t-287 -120q-102 0 -186.5 57.5t-120.5 137.5v-537h-84zM217 408q0 -141 89.5 -248t225.5 -107q139 0 223.5 97t84.5 260q0 151 -79.5 254.5t-223.5 103.5 q-137 0 -228.5 -103.5t-91.5 -256.5z" />
<glyph unicode="q" horiz-adv-x="995" d="M68 412q0 115 47 213t139.5 159.5t212.5 61.5q105 0 190 -57.5t121 -137.5v170h84v-1188h-84v537q-36 -80 -122 -137.5t-191 -57.5q-178 0 -287.5 116.5t-109.5 320.5zM156 414q0 -167 82 -264t233 -97q86 0 157.5 51.5t110.5 132.5t39 171q0 153 -90 256.5t-227 103.5 q-96 0 -166.5 -51t-104.5 -130.5t-34 -172.5z" />
<glyph unicode="r" horiz-adv-x="616" d="M133 0v821h84v-123q30 64 87 106t128 42q51 0 88.5 -14t73.5 -48l-49 -63q-54 51 -121 51q-80 0 -143.5 -87t-63.5 -185v-500h-84z" />
<glyph unicode="s" horiz-adv-x="733" d="M82 68l51 65q45 -36 108.5 -58t125.5 -22q77 0 137.5 46.5t60.5 113.5q0 34 -13.5 61t-30.5 43.5t-53 32.5t-60.5 23.5t-73.5 21.5q-51 14 -89.5 31t-75 44t-56 68t-19.5 93q0 67 41 117.5t100 74t123 23.5q150 0 267 -90l-50 -62q-101 76 -221 76q-68 0 -121 -36.5 t-53 -98.5q0 -34 13 -60t41 -44.5t61 -31.5t84 -28q50 -14 80.5 -24.5t72 -31.5t64.5 -46t40 -65t17 -91q0 -68 -42.5 -123.5t-108 -85t-135.5 -29.5q-77 0 -156 26t-129 67z" />
<glyph unicode="t" horiz-adv-x="462" d="M20 748v73h130v385h83v-385h158v-73h-158v-576q0 -39 28.5 -68.5t80.5 -29.5h51v-74h-59q-83 0 -133.5 49t-50.5 125v574h-130z" />
<glyph unicode="u" horiz-adv-x="917" d="M119 266v555h84v-542q0 -101 60 -165.5t165 -64.5q116 0 194 84t78 184v504h84v-821h-84v135q-39 -73 -112.5 -116.5t-163.5 -43.5q-141 0 -223 82t-82 209z" />
<glyph unicode="v" horiz-adv-x="825" d="M35 821h90l289 -674l293 674h84l-377 -868z" />
<glyph unicode="w" horiz-adv-x="1284" d="M35 821h90l262 -651l258 651l264 -645l252 645h88l-342 -868l-262 653l-260 -653z" />
<glyph unicode="x" horiz-adv-x="829" d="M41 0l324 446l-275 375h98l226 -309l223 309h98l-270 -372l323 -449h-102l-272 379l-277 -379h-96z" />
<glyph unicode="y" horiz-adv-x="811" d="M35 821h90l293 -706l274 706h84l-409 -1040q-31 -77 -82 -122.5t-119 -45.5q-69 0 -121 25v81q50 -30 100 -30q100 0 154 137l72 178z" />
<glyph unicode="z" horiz-adv-x="856" d="M43 0l594 743h-516v78h678l-596 -743h559v-78h-719z" />
<glyph unicode="{" horiz-adv-x="532" d="M51 537v94q32 0 56 14t39.5 41t25.5 58t15 75t6.5 81.5t1.5 86.5q0 97 6.5 161.5t24 124t51.5 102.5t86 82t131 77v-78q-88 -62 -128.5 -109.5t-59.5 -123t-19 -207.5q0 -75 -2 -120.5t-10 -101t-23 -90t-43.5 -67.5t-69.5 -53q41 -20 69.5 -53t43.5 -67.5t23 -90 t10 -101t2 -120.5q0 -132 19 -207.5t59.5 -123.5t128.5 -110v-78q-79 38 -131 77t-86 82t-51.5 102.5t-24 124t-6.5 161.5q0 60 -2.5 104t-11 95t-23.5 83t-42 53.5t-65 21.5z" />
<glyph unicode="|" horiz-adv-x="415" d="M164 -367v1862h88v-1862h-88z" />
<glyph unicode="}" horiz-adv-x="532" d="M39 -289q88 62 128.5 110t59.5 123.5t19 207.5q0 76 1.5 120.5t9.5 101t23 90.5t43.5 67t69.5 53q-41 20 -69.5 53t-43.5 67t-23 90.5t-9.5 101t-1.5 120.5q0 132 -19 207.5t-59.5 123t-128.5 109.5v78q79 -38 131 -77t86 -82t51.5 -102.5t24 -124t6.5 -161.5 q0 -50 1.5 -87t6.5 -81t14.5 -75t25 -58t39.5 -41t56 -14v-94q-38 0 -65 -21.5t-42 -53.5t-23.5 -83t-10.5 -95t-2 -104q0 -97 -6.5 -161.5t-24 -124t-51.5 -102.5t-86 -82t-131 -77v78z" />
<glyph unicode="~" horiz-adv-x="901" d="M102 635q3 40 13 78.5t30.5 78t58.5 63.5t89 24q59 0 174 -86q84 -63 111 -74q16 -6 28 -6q44 0 73 41.5t32 119.5h88q-3 -41 -12.5 -78.5t-29.5 -77t-58.5 -63.5t-90.5 -24q-64 0 -178 90q-36 27 -52 38.5t-41 24.5t-42 13q-44 0 -73 -40.5t-32 -121.5h-88z" />
<glyph unicode="&#xa1;" horiz-adv-x="387" d="M147 0v881l21 350h51l21 -350v-881h-93zM147 1323v172h93v-172h-93z" />
<glyph unicode="&#xa2;" horiz-adv-x="901" d="M68 414q0 172 105.5 295t262.5 135v170h82v-170q181 -17 293 -156l-68 -53q-90 117 -225 131v-709q142 16 242 164l65 -43q-119 -182 -307 -201v-139h-82v139q-159 15 -263.5 139t-104.5 298zM156 418q0 -141 79 -245.5t201 -117.5v711q-124 -17 -202 -115.5t-78 -232.5z " />
<glyph unicode="&#xa3;" horiz-adv-x="1073" d="M96 113q0 71 50 114t149 43q88 0 178 -51q19 55 19 109q0 53 -13 110h-307v74h287q-14 42 -47 98h-240v74h193q-14 20 -58 76.5t-62 84.5t-45.5 78t-38.5 98.5t-11 102.5q0 184 112.5 290t294.5 106q91 0 167.5 -33t124.5 -86t77 -112.5t35 -119.5h-97 q-26 127 -108.5 196t-204.5 69q-143 0 -224 -81.5t-81 -219.5q0 -68 24.5 -133.5t52 -106t78 -106.5t74.5 -103h295v-74h-252q25 -48 39 -98h213v-74h-199q7 -44 7 -80q0 -107 -31 -186q6 -4 28.5 -20.5t29.5 -22t26.5 -18.5t29.5 -18t27.5 -14t30.5 -12.5t29 -6.5t32 -3 q40 0 68 17.5t43 50.5t21.5 70.5t7.5 85.5h86q-6 -306 -232 -306q-22 0 -42.5 3t-43 12.5t-36.5 15.5t-39 22t-33.5 22t-36.5 27t-33 25q-42 -62 -105.5 -94.5t-138.5 -32.5q-63 0 -116.5 40t-53.5 98zM182 121q0 -33 27 -52.5t70 -19.5q98 0 161 101q-73 47 -151 47 q-50 0 -78.5 -21t-28.5 -55z" />
<glyph unicode="&#xa4;" d="M0 662v172h86v-172h-86zM662 0v86h172v-86h-172zM662 662v172h172v-172h-172zM662 1409v86h172v-86h-172zM1409 662v172h86v-172h-86z" />
<glyph unicode="&#xa5;" horiz-adv-x="1286" d="M57 1495h107l481 -696l479 696h105l-543 -782v-160h375v-76h-375v-162h375v-75h-375v-240h-92v240h-410v75h410v162h-410v76h410v162z" />
<glyph unicode="&#xa6;" d="M0 662v172h86v-172h-86zM662 0v86h172v-86h-172zM662 662v172h172v-172h-172zM662 1409v86h172v-86h-172zM1409 662v172h86v-172h-86z" />
<glyph unicode="&#xa7;" horiz-adv-x="1288" d="M61 647q0 122 72.5 225.5t183.5 151.5q-98 75 -98 180q0 138 114.5 227t305.5 89q122 0 241.5 -49t174.5 -109l-62 -66q-51 59 -157 98.5t-201 39.5q-158 0 -239 -63.5t-81 -153.5q0 -31 9.5 -56.5t32.5 -47.5t48.5 -39t71 -37t85 -34.5t105.5 -38.5q12 -4 19 -6.5 t17.5 -6.5t19.5 -7q61 -22 103.5 -39t98 -43t93.5 -51.5t78.5 -61t65 -74t40 -88.5t15.5 -106q0 -122 -72.5 -225.5t-183.5 -151.5q98 -75 98 -180q0 -138 -114.5 -226.5t-305.5 -88.5q-122 0 -241.5 49t-174.5 109l62 65q51 -59 157 -98t201 -39q158 0 239 63.5t81 153.5 q0 84 -86 140q-59 38 -242 103l-1 1h-1l-1 1h-1h-1l-1 1h-1h-1l-1 1h-1h-1l-1 1h-1h-1l-1 1h-1h-1l-1 1h-2q-39 14 -60 22q-61 22 -103.5 39t-98 43t-93.5 51.5t-78.5 61t-65 74t-40 88.5t-15.5 106zM158 659q0 -49 12 -90.5t30.5 -73t54 -61.5t67.5 -50.5t87.5 -45.5 t98 -41t113.5 -41q14 -5 53 -19t58 -21t49.5 -18.5t54 -22t45.5 -21.5q107 42 173 127.5t66 187.5q0 49 -12 90.5t-30.5 73t-54 61.5t-67.5 50.5t-87.5 45.5t-98 41t-113.5 41q-197 71 -260 103q-107 -42 -173 -128t-66 -188z" />
<glyph unicode="&#xa8;" horiz-adv-x="901" d="M244 991v172h94v-172h-94zM563 991v172h94v-172h-94z" />
<glyph unicode="&#xa9;" horiz-adv-x="1728" d="M92 748q0 157 61 300t164.5 246.5t246.5 164.5t300 61t300 -61t246.5 -164.5t164.5 -246.5t61 -300t-61 -300t-164.5 -246.5t-246.5 -165t-300 -61.5t-300 61.5t-246.5 165t-164.5 246.5t-61 300zM162 745q0 -143 55 -272.5t149 -224t224 -150t274 -55.5t274.5 55.5 t224 150t149 224t55.5 272.5q0 191 -93.5 353.5t-255.5 258t-354 95.5q-144 0 -274.5 -56.5t-224 -151.5t-148.5 -225.5t-55 -273.5zM428 752q0 191 122 326.5t306 135.5q100 0 186.5 -37t139.5 -102l-58 -53q-99 113 -256 113t-255.5 -109.5t-98.5 -269.5q0 -163 99.5 -275 t248.5 -112q92 0 157 31.5t124 95.5l57 -52q-54 -64 -141 -109.5t-195 -45.5q-185 0 -310.5 132.5t-125.5 330.5z" />
<glyph unicode="&#xaa;" horiz-adv-x="862" d="M129 618v70h582v-70h-582zM129 1014q0 118 92 177.5t262 59.5h131v56q0 141 -184 141q-121 0 -203 -49l-30 65q101 56 233 56t197 -55t65 -152v-492h-78v74q-105 -94 -241 -94q-104 0 -174 57t-70 156zM211 1014q0 -65 45 -102.5t117 -37.5q124 0 241 101v207h-122 q-142 0 -211.5 -40t-69.5 -128z" />
<glyph unicode="&#xab;" horiz-adv-x="634" d="M41 446l209 211h104l-200 -211l200 -210h-104zM262 446l209 211h104l-200 -211l200 -210h-104z" />
<glyph unicode="&#xac;" d="M0 662v172h86v-172h-86zM662 0v86h172v-86h-172zM662 662v172h172v-172h-172zM662 1409v86h172v-86h-172zM1409 662v172h86v-172h-86z" />
<glyph unicode="&#xad;" horiz-adv-x="675" d="M123 422v82h430v-82h-430z" />
<glyph unicode="&#xae;" horiz-adv-x="1728" d="M92 748q0 157 61 300t164.5 246.5t246.5 164.5t300 61t300 -61t246.5 -164.5t164.5 -246.5t61 -300t-61 -300t-164.5 -246.5t-246.5 -165t-300 -61.5t-300 61.5t-246.5 165t-164.5 246.5t-61 300zM162 745q0 -143 55 -272.5t149 -224t224 -150t274 -55.5t274.5 55.5 t224 150t149 224t55.5 272.5q0 191 -93.5 353.5t-255.5 258t-354 95.5q-144 0 -274.5 -56.5t-224 -151.5t-148.5 -225.5t-55 -273.5zM625 317v897h243q120 0 202.5 -67t82.5 -180q0 -124 -86 -189t-215 -65h-29l355 -396h-105l-368 420v-420h-80zM705 784h151q97 0 155 48.5 t58 134.5q0 80 -55.5 126t-145.5 46h-163v-355z" />
<glyph unicode="&#xaf;" horiz-adv-x="901" d="M184 991v74h533v-74h-533z" />
<glyph unicode="&#xb0;" horiz-adv-x="765" d="M61 1198q0 134 94.5 228t227.5 94t227.5 -94t94.5 -228q0 -133 -94 -227t-228 -94t-228 94t-94 227zM141 1198q0 -101 70.5 -171.5t171.5 -70.5t171.5 70.5t70.5 171.5t-70.5 171.5t-171.5 70.5t-171.5 -70.5t-70.5 -171.5z" />
<glyph unicode="&#xb1;" horiz-adv-x="1161" d="M14 748v73h144v494q0 91 45.5 135.5t120.5 44.5h69v-78h-63q-43 0 -65.5 -26.5t-22.5 -90.5v-479h311v494q0 91 45.5 135.5t120.5 44.5h69v-78h-63q-43 0 -65.5 -26.5t-22.5 -90.5v-479h151v-73h-151v-748h-84v748h-311v-748h-84v748h-144zM944 0v1495h84v-1495h-84z" />
<glyph unicode="&#xb2;" d="M0 662v172h86v-172h-86zM662 0v86h172v-86h-172zM662 662v172h172v-172h-172zM662 1409v86h172v-86h-172zM1409 662v172h86v-172h-86z" />
<glyph unicode="&#xb3;" d="M0 662v172h86v-172h-86zM662 0v86h172v-86h-172zM662 662v172h172v-172h-172zM662 1409v86h172v-86h-172zM1409 662v172h86v-172h-86z" />
<glyph unicode="&#xb4;" horiz-adv-x="901" d="M301 991l168 266h96l-168 -266h-96z" />
<glyph unicode="&#xb6;" horiz-adv-x="1263" d="M55 993q0 216 148 359t383 143h530v-1862h-88v1784h-172v-1784h-88v873h-203q-103 0 -198 39.5t-163 105.5t-108.5 155.5t-40.5 186.5zM147 1006q0 -183 127 -302.5t330 -119.5h164v833h-172q-200 0 -324.5 -117t-124.5 -294z" />
<glyph unicode="&#xb7;" horiz-adv-x="337" d="M123 649v172h92v-172h-92z" />
<glyph unicode="&#xb8;" horiz-adv-x="901" d="M213 -301l39 51q22 -19 67.5 -34t81.5 -15q45 0 74 18.5t29 55.5q0 34 -25 53.5t-76 19.5q-48 0 -88 -16l-22 35l121 160h88l-90 -123q77 7 127.5 -26.5t50.5 -90.5q0 -78 -55.5 -116t-135.5 -38q-49 0 -102 20t-84 46z" />
<glyph unicode="&#xb9;" d="M0 662v172h86v-172h-86zM662 0v86h172v-86h-172zM662 662v172h172v-172h-172zM662 1409v86h172v-86h-172zM1409 662v172h86v-172h-86z" />
<glyph unicode="&#xba;" horiz-adv-x="974" d="M123 1163q0 156 103.5 257.5t254.5 101.5t255 -101.5t104 -257.5t-104 -258t-255 -102t-254.5 102t-103.5 258zM137 618v70h688v-70h-688zM205 1163q0 -123 79 -206t197 -83t197.5 83t79.5 206t-79 204t-198 81t-197.5 -81t-78.5 -204z" />
<glyph unicode="&#xbb;" horiz-adv-x="634" d="M59 236l201 210l-201 211h105l209 -211l-209 -210h-105zM281 236l200 210l-200 211h104l209 -211l-209 -210h-104z" />
<glyph unicode="&#xbc;" d="M0 662v172h86v-172h-86zM662 0v86h172v-86h-172zM662 662v172h172v-172h-172zM662 1409v86h172v-86h-172zM1409 662v172h86v-172h-86z" />
<glyph unicode="&#xbd;" d="M0 662v172h86v-172h-86zM662 0v86h172v-86h-172zM662 662v172h172v-172h-172zM662 1409v86h172v-86h-172zM1409 662v172h86v-172h-86z" />
<glyph unicode="&#xbe;" d="M0 662v172h86v-172h-86zM662 0v86h172v-86h-172zM662 662v172h172v-172h-172zM662 1409v86h172v-86h-172zM1409 662v172h86v-172h-86z" />
<glyph unicode="&#xbf;" horiz-adv-x="894" d="M96 328q0 46 12.5 95t24.5 80.5t46 86t46 72t56 79.5q161 220 161 394v92h93v-82q0 -64 -14.5 -125t-46 -123.5t-55.5 -101.5t-69 -105q-41 -60 -61 -90.5t-46.5 -80t-38 -92.5t-11.5 -87q0 -117 82 -198t200 -81q94 0 167 45.5t116 131.5l69 -54q-54 -104 -145.5 -156.5 t-206.5 -52.5q-163 0 -271 101.5t-108 251.5zM442 1323v172h93v-172h-93z" />
<glyph unicode="&#xc0;" horiz-adv-x="1282" d="M61 0l555 1520h52l553 -1520h-99l-204 573h-553l-205 -573h-99zM393 655h496l-248 695zM416 1884h96l168 -266h-96z" />
<glyph unicode="&#xc1;" horiz-adv-x="1282" d="M61 0l555 1520h52l553 -1520h-99l-204 573h-553l-205 -573h-99zM393 655h496l-248 695zM588 1618l168 266h96l-168 -266h-96z" />
<glyph unicode="&#xc2;" horiz-adv-x="1282" d="M61 0l555 1520h52l553 -1520h-99l-204 573h-553l-205 -573h-99zM393 655h496l-248 695zM395 1597l207 254h66l206 -254h-100l-139 175l-139 -175h-101z" />
<glyph unicode="&#xc3;" horiz-adv-x="1282" d="M61 0l555 1520h52l553 -1520h-99l-204 573h-553l-205 -573h-99zM383 1618q5 78 38 120t111 42q43 0 123 -41q81 -47 111 -47q62 0 65 84h84q-5 -79 -37.5 -120.5t-111.5 -41.5q-54 0 -131 47q-4 2 -22 11.5t-23.5 12t-18.5 8t-22 7.5t-17 2q-62 0 -65 -84h-84zM393 655 h496l-248 695z" />
<glyph unicode="&#xc4;" horiz-adv-x="1282" d="M61 0l555 1520h52l553 -1520h-99l-204 573h-553l-205 -573h-99zM246 1323v172h94v-172h-94zM393 655h496l-248 695zM944 1323v172h94v-172h-94z" />
<glyph unicode="&#xc5;" horiz-adv-x="1282" d="M61 0l533 1458q-64 18 -106 70.5t-42 120.5q0 82 57.5 139t139.5 57t139.5 -57t57.5 -139q0 -69 -42.5 -122.5t-107.5 -68.5l531 -1458h-99l-204 573h-553l-205 -573h-99zM393 655h496l-248 695zM520 1649q0 -51 36 -87t87 -36t87 36t36 87t-36 87t-87 36t-87 -36 t-36 -87z" />
<glyph unicode="&#xc6;" horiz-adv-x="1835" d="M29 0l866 1495h797v-82h-664v-584h598v-81h-598v-666h703v-82h-795v492h-526l-287 -492h-94zM457 573h479v834z" />
<glyph unicode="&#xc7;" horiz-adv-x="1462" d="M92 748q0 101 25.5 199t71 183t112 157t145.5 123.5t174 80.5t195 29q164 0 304 -63t229 -173l-66 -59q-183 209 -469 209q-178 0 -323 -96t-223.5 -251t-78.5 -333q0 -144 48.5 -272.5t132 -221t200.5 -146t250 -53.5q159 0 272.5 58.5t221.5 175.5l63 -55 q-208 -248 -518 -263l-53 -73q77 7 127.5 -26.5t50.5 -90.5q0 -78 -55 -116t-135 -38q-49 0 -102.5 20t-84.5 46l39 51q22 -19 67.5 -34t82.5 -15q45 0 73.5 18.5t28.5 55.5q0 73 -100 73q-48 0 -88 -16l-23 35l84 110q-141 9 -266.5 72t-216 164t-143 240.5t-52.5 294.5z " />
<glyph unicode="&#xc8;" horiz-adv-x="1062" d="M164 0v1495h756v-82h-664v-584h598v-81h-598v-666h702v-82h-794zM340 1884h96l168 -266h-96z" />
<glyph unicode="&#xc9;" horiz-adv-x="1062" d="M164 0v1495h756v-82h-664v-584h598v-81h-598v-666h702v-82h-794zM440 1618l168 266h97l-168 -266h-97z" />
<glyph unicode="&#xca;" horiz-adv-x="1062" d="M164 0v1495h756v-82h-664v-584h598v-81h-598v-666h702v-82h-794zM299 1618l207 254h65l207 -254h-100l-139 174l-140 -174h-100z" />
<glyph unicode="&#xcb;" horiz-adv-x="1062" d="M164 0v1495h756v-82h-664v-584h598v-81h-598v-666h702v-82h-794zM332 1618v172h94v-172h-94zM651 1618v172h94v-172h-94z" />
<glyph unicode="&#xcc;" horiz-adv-x="419" d="M-8 1905h96l168 -267h-96zM164 0v1495h92v-1495h-92z" />
<glyph unicode="&#xcd;" horiz-adv-x="419" d="M160 1618l168 266h96l-168 -266h-96zM164 0v1495h92v-1495h-92z" />
<glyph unicode="&#xce;" horiz-adv-x="419" d="M-33 1597l207 254h66l206 -254h-100l-139 175l-139 -175h-101zM164 0v1495h92v-1495h-92z" />
<glyph unicode="&#xcf;" horiz-adv-x="419" d="M18 1618v172h95v-172h-95zM164 0v1495h92v-1495h-92zM307 1618v172h94v-172h-94z" />
<glyph unicode="&#xd0;" horiz-adv-x="1376" d="M78 739v82h123v674h307q160 0 300 -48t246.5 -138.5t168 -231.5t61.5 -315q0 -140 -40 -262t-111.5 -213t-168 -156t-213 -98t-243.5 -33h-307v739h-123zM293 82h239q138 0 259 49t208.5 136.5t138 215.5t50.5 279q0 150 -50.5 274t-138.5 206t-208 126.5t-259 44.5h-239 v-592h338v-82h-338v-657z" />
<glyph unicode="&#xd1;" horiz-adv-x="1492" d="M164 0v1495h115l962 -1370q-4 52 -4 111v1259h92v-1495h-106l-971 1376q4 -51 4 -110v-1266h-92zM516 1597q5 78 38.5 120t111.5 42q42 0 122 -41q81 -47 111 -47q63 0 66 84h84q-5 -78 -38 -120t-112 -42q-54 0 -131 47q-6 3 -22 11.5t-23 12t-19 8.5t-21 7t-17 2 q-63 0 -66 -84h-84z" />
<glyph unicode="&#xd2;" horiz-adv-x="1658" d="M92 748q0 214 98 391.5t267.5 279t373.5 101.5t373 -101t266 -277.5t97 -391.5q0 -161 -57 -304.5t-155 -247t-234.5 -163.5t-289.5 -60q-204 0 -373.5 101.5t-267.5 279t-98 392.5zM188 748q0 -191 84.5 -349t232.5 -248t326 -90q134 0 252.5 53t203 144t134 218.5 t49.5 271.5q0 192 -82.5 349t-229 247t-327.5 90q-134 0 -253 -53t-204.5 -144t-135.5 -218.5t-50 -270.5zM614 1884h97l168 -266h-97z" />
<glyph unicode="&#xd3;" horiz-adv-x="1658" d="M92 748q0 214 98 391.5t267.5 279t373.5 101.5t373 -101t266 -277.5t97 -391.5q0 -161 -57 -304.5t-155 -247t-234.5 -163.5t-289.5 -60q-204 0 -373.5 101.5t-267.5 279t-98 392.5zM188 748q0 -191 84.5 -349t232.5 -248t326 -90q134 0 252.5 53t203 144t134 218.5 t49.5 271.5q0 192 -82.5 349t-229 247t-327.5 90q-134 0 -253 -53t-204.5 -144t-135.5 -218.5t-50 -270.5zM762 1618l168 266h96l-168 -266h-96z" />
<glyph unicode="&#xd4;" horiz-adv-x="1658" d="M92 748q0 214 98 391.5t267.5 279t373.5 101.5t373 -101t266 -277.5t97 -391.5q0 -161 -57 -304.5t-155 -247t-234.5 -163.5t-289.5 -60q-204 0 -373.5 101.5t-267.5 279t-98 392.5zM188 748q0 -191 84.5 -349t232.5 -248t326 -90q134 0 252.5 53t203 144t134 218.5 t49.5 271.5q0 192 -82.5 349t-229 247t-327.5 90q-134 0 -253 -53t-204.5 -144t-135.5 -218.5t-50 -270.5zM578 1618l206 254h66l207 -254h-101l-139 174l-139 -174h-100z" />
<glyph unicode="&#xd5;" horiz-adv-x="1658" d="M92 748q0 214 98 391.5t267.5 279t373.5 101.5t373 -101t266 -277.5t97 -391.5q0 -161 -57 -304.5t-155 -247t-234.5 -163.5t-289.5 -60q-204 0 -373.5 101.5t-267.5 279t-98 392.5zM188 748q0 -191 84.5 -349t232.5 -248t326 -90q134 0 252.5 53t203 144t134 218.5 t49.5 271.5q0 192 -82.5 349t-229 247t-327.5 90q-134 0 -253 -53t-204.5 -144t-135.5 -218.5t-50 -270.5zM553 1618q5 78 38 120t111 42q43 0 123 -41q81 -47 111 -47q62 0 65 84h84q-5 -79 -37.5 -120.5t-111.5 -41.5q-54 0 -131 47q-4 2 -22 11.5t-23.5 12t-18.5 8 t-22 7.5t-17 2q-62 0 -65 -84h-84z" />
<glyph unicode="&#xd6;" horiz-adv-x="1658" d="M84 1323v172h94v-172h-94zM92 748q0 214 98 391.5t267.5 279t373.5 101.5t373 -101t266 -277.5t97 -391.5q0 -161 -57 -304.5t-155 -247t-234.5 -163.5t-289.5 -60q-204 0 -373.5 101.5t-267.5 279t-98 392.5zM188 748q0 -191 84.5 -349t232.5 -248t326 -90 q134 0 252.5 53t203 144t134 218.5t49.5 271.5q0 192 -82.5 349t-229 247t-327.5 90q-134 0 -253 -53t-204.5 -144t-135.5 -218.5t-50 -270.5zM1481 1323v172h94v-172h-94z" />
<glyph unicode="&#xd7;" d="M0 662v172h86v-172h-86zM662 0v86h172v-86h-172zM662 662v172h172v-172h-172zM662 1409v86h172v-86h-172zM1409 662v172h86v-172h-86z" />
<glyph unicode="&#xd8;" horiz-adv-x="1658" d="M92 748q0 214 98 391.5t267.5 279t373.5 101.5q275 0 474 -174l153 174l64 -50l-160 -180q98 -104 151.5 -242.5t53.5 -297.5q0 -161 -57 -304.5t-155 -247t-234.5 -163.5t-289.5 -60q-275 0 -479 179l-157 -179l-60 54l160 180q-96 107 -149.5 245.5t-53.5 293.5z M188 748q0 -135 44 -255.5t124 -213.5l889 1001q-175 154 -414 154q-134 0 -253 -53t-204.5 -144t-135.5 -218.5t-50 -270.5zM412 221q181 -160 419 -160q134 0 252.5 53t203 144t134 218.5t49.5 271.5q0 137 -44.5 259t-125.5 216z" />
<glyph unicode="&#xd9;" horiz-adv-x="1374" d="M154 543v952h92v-952q0 -204 128 -343t312 -139t313 139t129 343v952h93v-952q0 -167 -72 -297.5t-193.5 -200.5t-269.5 -70t-269 70t-192 200.5t-71 297.5zM492 1864h96l168 -267h-97z" />
<glyph unicode="&#xda;" horiz-adv-x="1374" d="M154 543v952h92v-952q0 -204 128 -343t312 -139t313 139t129 343v952h93v-952q0 -167 -72 -297.5t-193.5 -200.5t-269.5 -70t-269 70t-192 200.5t-71 297.5zM594 1597l168 267h96l-168 -267h-96z" />
<glyph unicode="&#xdb;" horiz-adv-x="1374" d="M154 543v952h92v-952q0 -204 128 -343t312 -139t313 139t129 343v952h93v-952q0 -167 -72 -297.5t-193.5 -200.5t-269.5 -70t-269 70t-192 200.5t-71 297.5zM451 1597l206 254h66l207 -254h-101l-139 175l-139 -175h-100z" />
<glyph unicode="&#xdc;" horiz-adv-x="1374" d="M154 543v952h92v-952q0 -204 128 -343t312 -139t313 139t129 343v952h93v-952q0 -167 -72 -297.5t-193.5 -200.5t-269.5 -70t-269 70t-192 200.5t-71 297.5zM479 1323v172h94v-172h-94zM799 1323v172h94v-172h-94z" />
<glyph unicode="&#xdd;" horiz-adv-x="1286" d="M57 1495h107l481 -696l479 696h105l-543 -782v-713h-92v715zM561 1597l168 267h96l-168 -267h-96z" />
<glyph unicode="&#xde;" horiz-adv-x="1071" d="M164 0v1495h92v-293h236q242 0 369.5 -111t127.5 -294q0 -199 -130 -319t-367 -120h-236v-358h-92zM256 440h256q194 0 287.5 97t93.5 251q0 332 -418 332h-219v-680z" />
<glyph unicode="&#xdf;" horiz-adv-x="903" d="M133 0v1192q0 149 77.5 238.5t221.5 89.5q61 0 116.5 -19.5t100.5 -57.5t72 -101t27 -142q0 -121 -69 -212.5t-177 -127.5q56 -20 113.5 -67.5t107.5 -115t81.5 -159.5t31.5 -188q0 -144 -85.5 -249.5t-222.5 -105.5q-131 0 -194 45l37 66q53 -33 157 -33q94 0 157 80 t63 197q0 99 -34 188t-89.5 153.5t-126 107t-144.5 55.5v63q78 3 146 38t113.5 104.5t45.5 160.5q0 121 -64 181.5t-169 60.5q-96 0 -152.5 -66t-56.5 -180v-1196h-84z" />
<glyph unicode="&#xe0;" horiz-adv-x="872" d="M72 233q0 143 111.5 215t318.5 72h168v68q0 55 -19.5 92.5t-55.5 55.5t-73 25t-86 7q-150 0 -248 -59l-34 69q120 68 282 68q160 0 239 -66.5t79 -183.5v-596h-84v94q-137 -119 -303 -119q-127 0 -211 68.5t-84 189.5zM160 233q0 -84 59 -132t148 -48q155 0 303 125v268 h-160q-172 0 -261 -51t-89 -162zM240 1257h96l168 -266h-96z" />
<glyph unicode="&#xe1;" horiz-adv-x="872" d="M72 233q0 143 111.5 215t318.5 72h168v68q0 55 -19.5 92.5t-55.5 55.5t-73 25t-86 7q-150 0 -248 -59l-34 69q120 68 282 68q160 0 239 -66.5t79 -183.5v-596h-84v94q-137 -119 -303 -119q-127 0 -211 68.5t-84 189.5zM160 233q0 -84 59 -132t148 -48q155 0 303 125v268 h-160q-172 0 -261 -51t-89 -162zM350 991l168 266h96l-168 -266h-96z" />
<glyph unicode="&#xe2;" horiz-adv-x="872" d="M72 233q0 143 111.5 215t318.5 72h168v68q0 55 -19.5 92.5t-55.5 55.5t-73 25t-86 7q-150 0 -248 -59l-34 69q120 68 282 68q160 0 239 -66.5t79 -183.5v-596h-84v94q-137 -119 -303 -119q-127 0 -211 68.5t-84 189.5zM160 233q0 -84 59 -132t148 -48q155 0 303 125v268 h-160q-172 0 -261 -51t-89 -162zM190 991l207 254h66l207 -254h-101l-139 174l-139 -174h-101z" />
<glyph unicode="&#xe3;" horiz-adv-x="872" d="M72 233q0 143 111.5 215t318.5 72h168v68q0 55 -19.5 92.5t-55.5 55.5t-73 25t-86 7q-150 0 -248 -59l-34 69q120 68 282 68q160 0 239 -66.5t79 -183.5v-596h-84v94q-137 -119 -303 -119q-127 0 -211 68.5t-84 189.5zM160 233q0 -84 59 -132t148 -48q155 0 303 125v268 h-160q-172 0 -261 -51t-89 -162zM166 991q5 78 38 120t111 42q43 0 123 -41q81 -47 111 -47q62 0 65 84h84q-5 -79 -37.5 -120.5t-111.5 -41.5q-54 0 -131 47q-4 2 -22 11.5t-23.5 12t-18.5 8t-22 7.5t-17 2q-62 0 -65 -84h-84z" />
<glyph unicode="&#xe4;" horiz-adv-x="872" d="M72 233q0 143 111.5 215t318.5 72h168v68q0 55 -19.5 92.5t-55.5 55.5t-73 25t-86 7q-150 0 -248 -59l-34 69q120 68 282 68q160 0 239 -66.5t79 -183.5v-596h-84v94q-137 -119 -303 -119q-127 0 -211 68.5t-84 189.5zM160 233q0 -84 59 -132t148 -48q155 0 303 125v268 h-160q-172 0 -261 -51t-89 -162zM221 991v172h94v-172h-94zM541 991v172h94v-172h-94z" />
<glyph unicode="&#xe5;" horiz-adv-x="872" d="M72 233q0 143 111.5 215t318.5 72h168v68q0 55 -19.5 92.5t-55.5 55.5t-73 25t-86 7q-150 0 -248 -59l-34 69q120 68 282 68q160 0 239 -66.5t79 -183.5v-596h-84v94q-137 -119 -303 -119q-127 0 -211 68.5t-84 189.5zM160 233q0 -84 59 -132t148 -48q155 0 303 125v268 h-160q-172 0 -261 -51t-89 -162zM236 1174q0 82 57 139t139 57t139.5 -57t57.5 -139t-57.5 -139.5t-139.5 -57.5t-139 57.5t-57 139.5zM305 1174q0 -52 37.5 -89.5t89.5 -37.5t89.5 37.5t37.5 89.5t-37 89t-90 37t-90 -37t-37 -89z" />
<glyph unicode="&#xe6;" horiz-adv-x="1490" d="M72 233q0 139 105 201t304 62h193v71q0 53 -14.5 91.5t-35.5 59t-55 32.5t-63.5 15t-69.5 3q-150 0 -248 -59l-34 69q120 68 282 68q138 0 216 -48.5t87 -133.5q43 85 130.5 133.5t197.5 48.5q92 0 163 -36t113 -97.5t64.5 -134.5t26.5 -156h-678q2 -162 91 -265.5 t243 -103.5q86 0 145 29.5t121 93.5l59 -51q-119 -150 -330 -150q-114 0 -206 51.5t-134 127.5q-72 -77 -172 -128t-206 -51q-127 0 -211 68.5t-84 189.5zM160 233q0 -84 59 -132t148 -48q103 0 194.5 52.5t145.5 119.5q-33 85 -33 197h-185q-164 0 -246.5 -43t-82.5 -146z M760 496h571q-4 50 -21 96.5t-48 87t-82.5 64.5t-116.5 24q-131 0 -207.5 -76.5t-95.5 -195.5z" />
<glyph unicode="&#xe7;" horiz-adv-x="876" d="M68 414q0 182 116 307t285 125q212 0 342 -158l-68 -53q-107 133 -262 133q-142 0 -233.5 -101.5t-91.5 -248.5q0 -151 90 -258t223 -107q175 0 291 168l65 -43q-54 -83 -132.5 -137t-176.5 -64l-53 -73q77 7 127.5 -26.5t50.5 -90.5q0 -78 -55 -116t-135 -38 q-49 0 -102.5 20t-84.5 46l39 51q22 -19 67.5 -34t82.5 -15q45 0 73.5 18.5t28.5 55.5q0 73 -100 73q-48 0 -88 -16l-23 35l84 110q-157 19 -258.5 142t-101.5 295z" />
<glyph unicode="&#xe8;" horiz-adv-x="909" d="M68 424q0 82 25.5 156t73.5 134.5t127 96t177 35.5q76 0 139 -24t105.5 -64.5t73 -95.5t45.5 -115t18 -125h-696q2 -162 89.5 -265.5t241.5 -103.5q167 0 287 123l60 -51q-49 -62 -140 -106t-211 -44q-82 0 -151 24t-117 66t-81.5 99t-49.5 122.5t-16 137.5zM160 496h590 q-4 49 -23.5 96t-53 87t-87.5 64.5t-119 24.5q-136 0 -212 -76t-95 -196zM250 1257h96l168 -266h-96z" />
<glyph unicode="&#xe9;" horiz-adv-x="909" d="M68 424q0 82 25.5 156t73.5 134.5t127 96t177 35.5q76 0 139 -24t105.5 -64.5t73 -95.5t45.5 -115t18 -125h-696q2 -162 89.5 -265.5t241.5 -103.5q167 0 287 123l60 -51q-49 -62 -140 -106t-211 -44q-82 0 -151 24t-117 66t-81.5 99t-49.5 122.5t-16 137.5zM160 496h590 q-4 49 -23.5 96t-53 87t-87.5 64.5t-119 24.5q-136 0 -212 -76t-95 -196zM393 991l168 266h96l-168 -266h-96z" />
<glyph unicode="&#xea;" horiz-adv-x="909" d="M68 424q0 82 25.5 156t73.5 134.5t127 96t177 35.5q76 0 139 -24t105.5 -64.5t73 -95.5t45.5 -115t18 -125h-696q2 -162 89.5 -265.5t241.5 -103.5q167 0 287 123l60 -51q-49 -62 -140 -106t-211 -44q-82 0 -151 24t-117 66t-81.5 99t-49.5 122.5t-16 137.5zM160 496h590 q-4 49 -23.5 96t-53 87t-87.5 64.5t-119 24.5q-136 0 -212 -76t-95 -196zM223 971l207 254h66l206 -254h-100l-139 174l-139 -174h-101z" />
<glyph unicode="&#xeb;" horiz-adv-x="909" d="M68 424q0 82 25.5 156t73.5 134.5t127 96t177 35.5q76 0 139 -24t105.5 -64.5t73 -95.5t45.5 -115t18 -125h-696q2 -162 89.5 -265.5t241.5 -103.5q167 0 287 123l60 -51q-49 -62 -140 -106t-211 -44q-82 0 -151 24t-117 66t-81.5 99t-49.5 122.5t-16 137.5zM160 496h590 q-4 49 -23.5 96t-53 87t-87.5 64.5t-119 24.5q-136 0 -212 -76t-95 -196zM254 991v172h94v-172h-94zM573 991v172h95v-172h-95z" />
<glyph unicode="&#xec;" horiz-adv-x="350" d="M-45 1257h96l168 -266h-96zM133 0v821h84v-821h-84z" />
<glyph unicode="&#xed;" horiz-adv-x="350" d="M127 991l168 266h96l-168 -266h-96zM133 0v821h84v-821h-84z" />
<glyph unicode="&#xee;" horiz-adv-x="350" d="M-68 971l207 254h66l207 -254h-101l-139 174l-139 -174h-101zM133 0v821h84v-821h-84z" />
<glyph unicode="&#xef;" horiz-adv-x="350" d="M0 991v172h94v-172h-94zM133 0v821h84v-821h-84zM256 991v172h94v-172h-94z" />
<glyph unicode="&#xf0;" horiz-adv-x="1028" d="M68 432q0 112 61.5 208t163.5 151t219 55q99 0 186.5 -41t143.5 -117q-21 111 -86.5 258t-175.5 285l-275 -111l-33 66l258 104q-97 109 -206 189l51 55q125 -92 231 -213l152 61l30 -65l-133 -55q148 -187 227 -407t79 -421q0 -65 -17.5 -129t-55.5 -123.5t-90.5 -105.5 t-129.5 -73.5t-166 -27.5q-183 0 -308.5 126.5t-125.5 330.5zM156 412q0 -154 103 -256.5t253 -102.5t253 102.5t103 256.5t-102.5 255t-253.5 101t-253.5 -101t-102.5 -255z" />
<glyph unicode="&#xf1;" horiz-adv-x="917" d="M133 0v821h84v-135q39 73 113 116.5t164 43.5q141 0 223 -82t82 -209v-555h-84v543q0 101 -60.5 165t-165.5 64q-116 0 -194 -84t-78 -184v-504h-84zM195 991q5 78 38 120t111 42q43 0 123 -41q81 -47 111 -47q62 0 65 84h84q-5 -79 -37.5 -120.5t-111.5 -41.5 q-55 0 -132 47q-6 3 -22 11.5t-23 12t-19 8.5t-21 7t-17 2q-62 0 -65 -84h-84z" />
<glyph unicode="&#xf2;" horiz-adv-x="1003" d="M68 412q0 189 125.5 311.5t308.5 122.5t308.5 -122.5t125.5 -311.5q0 -125 -58.5 -226t-157.5 -156t-218 -55t-218 55t-157.5 156t-58.5 226zM156 412q0 -155 98.5 -257t247.5 -102t247.5 102t98.5 257t-98 255.5t-248 100.5t-248 -100.5t-98 -255.5zM279 1257h96 l168 -266h-97z" />
<glyph unicode="&#xf3;" horiz-adv-x="1003" d="M68 412q0 189 125.5 311.5t308.5 122.5t308.5 -122.5t125.5 -311.5q0 -125 -58.5 -226t-157.5 -156t-218 -55t-218 55t-157.5 156t-58.5 226zM156 412q0 -155 98.5 -257t247.5 -102t247.5 102t98.5 257t-98 255.5t-248 100.5t-248 -100.5t-98 -255.5zM428 991l168 266h96 l-168 -266h-96z" />
<glyph unicode="&#xf4;" horiz-adv-x="1003" d="M68 412q0 189 125.5 311.5t308.5 122.5t308.5 -122.5t125.5 -311.5q0 -125 -58.5 -226t-157.5 -156t-218 -55t-218 55t-157.5 156t-58.5 226zM156 412q0 -155 98.5 -257t247.5 -102t247.5 102t98.5 257t-98 255.5t-248 100.5t-248 -100.5t-98 -255.5zM254 971l207 254h65 l207 -254h-100l-139 174l-140 -174h-100z" />
<glyph unicode="&#xf5;" horiz-adv-x="1003" d="M68 412q0 189 125.5 311.5t308.5 122.5t308.5 -122.5t125.5 -311.5q0 -125 -58.5 -226t-157.5 -156t-218 -55t-218 55t-157.5 156t-58.5 226zM156 412q0 -155 98.5 -257t247.5 -102t247.5 102t98.5 257t-98 255.5t-248 100.5t-248 -100.5t-98 -255.5zM227 991 q5 78 38.5 120t111.5 42q43 0 123 -41q81 -47 110 -47q63 0 66 84h84q-5 -78 -38 -120t-112 -42q-54 0 -131 47q-6 3 -22 11.5t-23 12t-19 8.5t-21 7t-17 2q-63 0 -66 -84h-84z" />
<glyph unicode="&#xf6;" horiz-adv-x="1003" d="M68 412q0 189 125.5 311.5t308.5 122.5t308.5 -122.5t125.5 -311.5q0 -125 -58.5 -226t-157.5 -156t-218 -55t-218 55t-157.5 156t-58.5 226zM156 412q0 -155 98.5 -257t247.5 -102t247.5 102t98.5 257t-98 255.5t-248 100.5t-248 -100.5t-98 -255.5zM283 991v172h94 v-172h-94zM602 991v172h94v-172h-94z" />
<glyph unicode="&#xf7;" d="M0 662v172h86v-172h-86zM662 0v86h172v-86h-172zM662 662v172h172v-172h-172zM662 1409v86h172v-86h-172zM1409 662v172h86v-172h-86z" />
<glyph unicode="&#xf8;" horiz-adv-x="1003" d="M68 412q0 189 125.5 311.5t308.5 122.5q162 0 284 -101l99 101l57 -49l-102 -105q96 -120 96 -280q0 -125 -58.5 -226t-157.5 -156t-218 -55q-156 0 -275 95l-92 -95l-53 54l90 92q-104 117 -104 291zM156 412q0 -135 75 -232l498 506q-94 82 -227 82q-150 0 -248 -100.5 t-98 -255.5zM285 127q90 -74 217 -74q149 0 247.5 102t98.5 257q0 126 -68 219z" />
<glyph unicode="&#xf9;" horiz-adv-x="917" d="M119 266v555h84v-542q0 -101 60 -165.5t165 -64.5q116 0 194 84t78 184v504h84v-821h-84v135q-39 -73 -112.5 -116.5t-163.5 -43.5q-141 0 -223 82t-82 209zM236 1237h96l168 -266h-97z" />
<glyph unicode="&#xfa;" horiz-adv-x="917" d="M119 266v555h84v-542q0 -101 60 -165.5t165 -64.5q116 0 194 84t78 184v504h84v-821h-84v135q-39 -73 -112.5 -116.5t-163.5 -43.5q-141 0 -223 82t-82 209zM381 971l168 266h96l-168 -266h-96z" />
<glyph unicode="&#xfb;" horiz-adv-x="917" d="M119 266v555h84v-542q0 -101 60 -165.5t165 -64.5q116 0 194 84t78 184v504h84v-821h-84v135q-39 -73 -112.5 -116.5t-163.5 -43.5q-141 0 -223 82t-82 209zM213 971l207 254h65l207 -254h-100l-139 174l-140 -174h-100z" />
<glyph unicode="&#xfc;" horiz-adv-x="917" d="M119 266v555h84v-542q0 -101 60 -165.5t165 -64.5q116 0 194 84t78 184v504h84v-821h-84v135q-39 -73 -112.5 -116.5t-163.5 -43.5q-141 0 -223 82t-82 209zM246 971v172h94v-172h-94zM565 971v172h94v-172h-94z" />
<glyph unicode="&#xfd;" horiz-adv-x="811" d="M35 821h90l293 -706l274 706h84l-409 -1040q-31 -77 -82 -122.5t-119 -45.5q-69 0 -121 25v81q50 -30 100 -30q100 0 154 137l72 178zM342 991l168 266h96l-168 -266h-96z" />
<glyph unicode="&#xfe;" horiz-adv-x="995" d="M133 -367v1862h84v-844q35 79 127.5 137t198.5 58q116 0 205 -60.5t134.5 -157.5t45.5 -212q0 -201 -117 -321t-287 -120q-102 0 -186.5 57.5t-120.5 137.5v-537h-84zM217 408q0 -141 89.5 -248t225.5 -107q139 0 223.5 97t84.5 260q0 151 -79.5 254.5t-223.5 103.5 q-137 0 -228.5 -103.5t-91.5 -256.5z" />
<glyph unicode="&#xff;" horiz-adv-x="811" d="M35 821h90l293 -706l274 706h84l-409 -1040q-31 -77 -82 -122.5t-119 -45.5q-69 0 -121 25v81q50 -30 100 -30q100 0 154 137l72 178zM199 971v172h94v-172h-94zM518 971v172h94v-172h-94z" />
<glyph unicode="&#x152;" horiz-adv-x="2369" d="M92 748q0 214 98 391.5t267.5 279t373.5 101.5q205 0 374.5 -103t264.5 -278v356h756v-82h-663v-584h598v-81h-598v-666h702v-82h-795v358q-95 -176 -265 -279.5t-374 -103.5t-373.5 101.5t-267.5 279t-98 392.5zM188 748q0 -191 84.5 -349t232.5 -248t326 -90 q134 0 252.5 53t203 144t134 218.5t49.5 271.5q0 192 -82.5 349t-229 247t-327.5 90q-134 0 -253 -53t-204.5 -144t-135.5 -218.5t-50 -270.5z" />
<glyph unicode="&#x153;" horiz-adv-x="1658" d="M68 412q0 190 121 312t303 122q126 0 229 -64t147 -172q38 104 134 170t229 66q74 0 135 -24t102.5 -64.5t71.5 -95.5t44.5 -115t17.5 -125h-689q2 -166 90.5 -267.5t243.5 -101.5q87 0 152 30.5t125 92.5l59 -51q-50 -63 -135.5 -106.5t-204.5 -43.5q-137 0 -233.5 66.5 t-139.5 177.5q-41 -108 -146 -176t-232 -68q-181 0 -302.5 123.5t-121.5 313.5zM156 412q0 -156 94 -257.5t242 -101.5t242.5 101.5t94.5 257.5q0 157 -93 256.5t-244 99.5q-149 0 -242.5 -100t-93.5 -256zM918 496h581q-4 50 -22.5 96.5t-50.5 86.5t-84 64.5t-115 24.5 q-136 0 -213 -76t-96 -196z" />
<glyph unicode="&#x178;" horiz-adv-x="1286" d="M57 1495h107l481 -696l479 696h105l-543 -782v-713h-92v715zM436 1597v172h94v-172h-94zM756 1597v172h94v-172h-94z" />
<glyph unicode="&#x2c6;" horiz-adv-x="901" d="M211 991l207 254h65l207 -254h-100l-139 174l-140 -174h-100z" />
<glyph unicode="&#x2dc;" horiz-adv-x="901" d="M184 991q5 78 38.5 120t111.5 42q43 0 123 -41q81 -47 110 -47q63 0 66 84h84q-5 -78 -38 -120t-112 -42q-54 0 -131 47q-6 3 -22 11.5t-23 12t-19 8.5t-21 7t-17 2q-63 0 -66 -84h-84z" />
<glyph unicode="&#x2000;" horiz-adv-x="952" />
<glyph unicode="&#x2001;" horiz-adv-x="1905" />
<glyph unicode="&#x2002;" horiz-adv-x="952" />
<glyph unicode="&#x2003;" horiz-adv-x="1905" />
<glyph unicode="&#x2004;" horiz-adv-x="635" />
<glyph unicode="&#x2005;" horiz-adv-x="476" />
<glyph unicode="&#x2006;" horiz-adv-x="317" />
<glyph unicode="&#x2007;" horiz-adv-x="317" />
<glyph unicode="&#x2008;" horiz-adv-x="238" />
<glyph unicode="&#x2009;" horiz-adv-x="381" />
<glyph unicode="&#x200a;" horiz-adv-x="105" />
<glyph unicode="&#x2010;" horiz-adv-x="675" d="M123 422v82h430v-82h-430z" />
<glyph unicode="&#x2011;" horiz-adv-x="675" d="M123 422v82h430v-82h-430z" />
<glyph unicode="&#x2012;" horiz-adv-x="675" d="M123 422v82h430v-82h-430z" />
<glyph unicode="&#x2013;" horiz-adv-x="839" d="M123 422v82h594v-82h-594z" />
<glyph unicode="&#x2014;" horiz-adv-x="1167" d="M123 422v82h921v-82h-921z" />
<glyph unicode="&#x2018;" horiz-adv-x="337" d="M123 1133v141q0 56 23 117.5t61 103.5h57q-23 -33 -34.5 -72t-13 -66t-1.5 -79v-145h-92z" />
<glyph unicode="&#x2019;" horiz-adv-x="337" d="M74 1133q23 33 34.5 72t13 66t1.5 79v145h92v-141q0 -56 -23 -117.5t-61 -103.5h-57z" />
<glyph unicode="&#x201a;" horiz-adv-x="337" d="M74 -190q23 33 34.5 72t13 66t1.5 79v145h92v-141q0 -56 -23 -117.5t-61 -103.5h-57z" />
<glyph unicode="&#x201c;" horiz-adv-x="573" d="M123 1133v141q0 56 23 117.5t61 103.5h57q-23 -33 -34.5 -72t-13 -66t-1.5 -79v-145h-92zM358 1133v141q0 56 23 117.5t61 103.5h58q-23 -33 -34.5 -72t-13 -66t-1.5 -79v-145h-93z" />
<glyph unicode="&#x201d;" horiz-adv-x="573" d="M74 1133q23 33 34.5 72t13 66t1.5 79v145h92v-141q0 -56 -23 -117.5t-61 -103.5h-57zM309 1133q23 33 34.5 72t13 66t1.5 79v145h93v-141q0 -56 -23 -117.5t-61 -103.5h-58z" />
<glyph unicode="&#x201e;" horiz-adv-x="573" d="M74 -190q23 33 34.5 72t13 66t1.5 79v145h92v-141q0 -56 -23 -117.5t-61 -103.5h-57zM309 -190q23 33 34.5 72t13 66t1.5 79v145h93v-141q0 -56 -23 -117.5t-61 -103.5h-58z" />
<glyph unicode="&#x2022;" horiz-adv-x="606" d="M143 776q0 66 47 113t113 47t113 -47t47 -113t-47 -113t-113 -47t-113 47t-47 113z" />
<glyph unicode="&#x2026;" horiz-adv-x="1034" d="M123 0v172h92v-172h-92zM471 0v172h92v-172h-92zM819 0v172h92v-172h-92z" />
<glyph unicode="&#x202f;" horiz-adv-x="381" />
<glyph unicode="&#x2039;" horiz-adv-x="413" d="M41 446l209 211h104l-200 -211l200 -210h-104z" />
<glyph unicode="&#x203a;" horiz-adv-x="413" d="M59 236l201 210l-201 211h105l209 -211l-209 -210h-105z" />
<glyph unicode="&#x205f;" horiz-adv-x="476" />
<glyph unicode="&#x2122;" horiz-adv-x="1615" d="M47 1430v65h512v-65h-219v-832h-72v832h-221zM719 598v897h84l309 -483l307 483h86v-897h-71v793l-304 -471h-36l-303 471v-793h-72z" />
<glyph unicode="&#xe000;" horiz-adv-x="819" d="M0 0v819h819v-819h-819z" />
<glyph unicode="&#xfb01;" horiz-adv-x="765" d="M14 748v73h144v494q0 91 45.5 135.5t120.5 44.5h69v-78h-63q-43 0 -65.5 -26.5t-22.5 -90.5v-479h151v-73h-151v-748h-84v748h-144zM549 0v821h84v-821h-84zM549 1051v163h84v-163h-84z" />
<glyph unicode="&#xfb02;" horiz-adv-x="765" d="M14 748v73h144v494q0 91 45.5 135.5t120.5 44.5h69v-78h-63q-43 0 -65.5 -26.5t-22.5 -90.5v-479h151v-73h-151v-748h-84v748h-144zM549 0v1495h84v-1495h-84z" />
</font>
</defs>
</svg>
